<mxfile host="Electron" modified="2023-11-13T19:23:22.974Z" agent="Mozilla/5.0 (Windows NT 10.0; Win64; x64) AppleWebKit/537.36 (KHTML, like Gecko) draw.io/22.0.2 Chrome/114.0.5735.289 Electron/25.8.4 Safari/537.36" etag="X4R_Sa25v3wt9xbdvUtO" version="22.0.2" type="device">
  <diagram name="Page-1" id="NNfGUAd-1Q0jUisDUiX7">
    <mxGraphModel dx="918" dy="676" grid="1" gridSize="10" guides="1" tooltips="1" connect="1" arrows="1" fold="1" page="1" pageScale="1" pageWidth="1100" pageHeight="850" math="0" shadow="0">
      <root>
        <mxCell id="0" />
        <mxCell id="1" parent="0" />
        <mxCell id="3wklKYEOANyQfuSkrT0Y-13" value="" style="edgeStyle=orthogonalEdgeStyle;rounded=0;orthogonalLoop=1;jettySize=auto;html=1;" edge="1" parent="1" source="3wklKYEOANyQfuSkrT0Y-1" target="3wklKYEOANyQfuSkrT0Y-10">
          <mxGeometry relative="1" as="geometry" />
        </mxCell>
        <mxCell id="3wklKYEOANyQfuSkrT0Y-1" value="&lt;p style=&quot;line-height: 90%;&quot;&gt;&lt;font style=&quot;font-size: 10px;&quot;&gt;Start&lt;/font&gt;&lt;/p&gt;" style="ellipse;whiteSpace=wrap;html=1;aspect=fixed;" vertex="1" parent="1">
          <mxGeometry x="80" y="120" width="40" height="40" as="geometry" />
        </mxCell>
        <mxCell id="3wklKYEOANyQfuSkrT0Y-5" value="&lt;font style=&quot;font-size: 10px;&quot;&gt;Finish&lt;/font&gt;" style="ellipse;whiteSpace=wrap;html=1;aspect=fixed;fontSize=7;" vertex="1" parent="1">
          <mxGeometry x="400" y="360" width="40" height="40" as="geometry" />
        </mxCell>
        <mxCell id="3wklKYEOANyQfuSkrT0Y-14" value="" style="edgeStyle=orthogonalEdgeStyle;rounded=0;orthogonalLoop=1;jettySize=auto;html=1;" edge="1" parent="1" source="3wklKYEOANyQfuSkrT0Y-10" target="3wklKYEOANyQfuSkrT0Y-11">
          <mxGeometry relative="1" as="geometry" />
        </mxCell>
        <mxCell id="3wklKYEOANyQfuSkrT0Y-10" value="&lt;font style=&quot;font-size: 10px;&quot;&gt;Select Nav Menu&lt;/font&gt;" style="rounded=1;whiteSpace=wrap;html=1;" vertex="1" parent="1">
          <mxGeometry x="200" y="120" width="120" height="40" as="geometry" />
        </mxCell>
        <mxCell id="3wklKYEOANyQfuSkrT0Y-15" value="" style="edgeStyle=orthogonalEdgeStyle;rounded=0;orthogonalLoop=1;jettySize=auto;html=1;" edge="1" parent="1" source="3wklKYEOANyQfuSkrT0Y-11" target="3wklKYEOANyQfuSkrT0Y-12">
          <mxGeometry relative="1" as="geometry" />
        </mxCell>
        <mxCell id="3wklKYEOANyQfuSkrT0Y-11" value="&lt;font style=&quot;font-size: 10px;&quot;&gt;Click Events Link&lt;br&gt;&lt;/font&gt;" style="rounded=1;whiteSpace=wrap;html=1;" vertex="1" parent="1">
          <mxGeometry x="200" y="240" width="120" height="40" as="geometry" />
        </mxCell>
        <mxCell id="3wklKYEOANyQfuSkrT0Y-16" value="" style="edgeStyle=orthogonalEdgeStyle;rounded=0;orthogonalLoop=1;jettySize=auto;html=1;" edge="1" parent="1" source="3wklKYEOANyQfuSkrT0Y-12" target="3wklKYEOANyQfuSkrT0Y-5">
          <mxGeometry relative="1" as="geometry" />
        </mxCell>
        <mxCell id="3wklKYEOANyQfuSkrT0Y-12" value="&lt;font style=&quot;font-size: 10px;&quot;&gt;Click Event &lt;br&gt;Title Link&lt;br&gt;&lt;/font&gt;" style="rounded=1;whiteSpace=wrap;html=1;" vertex="1" parent="1">
          <mxGeometry x="200" y="360" width="120" height="40" as="geometry" />
        </mxCell>
      </root>
    </mxGraphModel>
  </diagram>
</mxfile>
